<svg id="visual" viewBox="0 0 960 540" width="960" height="540" xmlns="http://www.w3.org/2000/svg" xmlns:xlink="http://www.w3.org/1999/xlink" version="1.1"><rect x="0" y="0" width="960" height="540" fill="#163020"></rect><path d="M0 412L13.3 399.2C26.7 386.3 53.3 360.7 80 355.2C106.7 349.7 133.3 364.3 160 367.2C186.7 370 213.3 361 240 353.7C266.7 346.3 293.3 340.7 320 337.2C346.7 333.7 373.3 332.3 400 335.7C426.7 339 453.3 347 480 348.5C506.7 350 533.3 345 560 339.5C586.7 334 613.3 328 640 324.3C666.7 320.7 693.3 319.3 720 321.5C746.7 323.7 773.3 329.3 800 337.7C826.7 346 853.3 357 880 352.2C906.7 347.3 933.3 326.7 946.7 316.3L960 306L960 541L946.7 541C933.3 541 906.7 541 880 541C853.3 541 826.7 541 800 541C773.3 541 746.7 541 720 541C693.3 541 666.7 541 640 541C613.3 541 586.7 541 560 541C533.3 541 506.7 541 480 541C453.3 541 426.7 541 400 541C373.3 541 346.7 541 320 541C293.3 541 266.7 541 240 541C213.3 541 186.7 541 160 541C133.3 541 106.7 541 80 541C53.3 541 26.7 541 13.3 541L0 541Z" fill="#569156"></path><path d="M0 352L13.3 352.7C26.7 353.3 53.3 354.7 80 368.2C106.7 381.7 133.3 407.3 160 415.5C186.7 423.7 213.3 414.3 240 409.3C266.7 404.3 293.3 403.7 320 395.7C346.7 387.7 373.3 372.3 400 372.7C426.7 373 453.3 389 480 387.2C506.7 385.3 533.3 365.7 560 360.5C586.7 355.3 613.3 364.7 640 367.5C666.7 370.3 693.3 366.7 720 367.3C746.7 368 773.3 373 800 383C826.7 393 853.3 408 880 410.7C906.7 413.3 933.3 403.7 946.7 398.8L960 394L960 541L946.7 541C933.3 541 906.7 541 880 541C853.3 541 826.7 541 800 541C773.3 541 746.7 541 720 541C693.3 541 666.7 541 640 541C613.3 541 586.7 541 560 541C533.3 541 506.7 541 480 541C453.3 541 426.7 541 400 541C373.3 541 346.7 541 320 541C293.3 541 266.7 541 240 541C213.3 541 186.7 541 160 541C133.3 541 106.7 541 80 541C53.3 541 26.7 541 13.3 541L0 541Z" fill="#437344"></path><path d="M0 434L13.3 430.8C26.7 427.7 53.3 421.3 80 420.3C106.7 419.3 133.3 423.7 160 423.3C186.7 423 213.3 418 240 416.7C266.7 415.3 293.3 417.7 320 415.2C346.7 412.7 373.3 405.3 400 411.2C426.7 417 453.3 436 480 440.8C506.7 445.7 533.3 436.3 560 431.8C586.7 427.3 613.3 427.7 640 421.2C666.7 414.7 693.3 401.3 720 405C746.7 408.7 773.3 429.3 800 429.5C826.7 429.7 853.3 409.3 880 401C906.7 392.7 933.3 396.3 946.7 398.2L960 400L960 541L946.7 541C933.3 541 906.7 541 880 541C853.3 541 826.7 541 800 541C773.3 541 746.7 541 720 541C693.3 541 666.7 541 640 541C613.3 541 586.7 541 560 541C533.3 541 506.7 541 480 541C453.3 541 426.7 541 400 541C373.3 541 346.7 541 320 541C293.3 541 266.7 541 240 541C213.3 541 186.7 541 160 541C133.3 541 106.7 541 80 541C53.3 541 26.7 541 13.3 541L0 541Z" fill="#325633"></path><path d="M0 431L13.3 437.3C26.7 443.7 53.3 456.3 80 460.3C106.7 464.3 133.3 459.7 160 459.8C186.7 460 213.3 465 240 469.8C266.7 474.7 293.3 479.3 320 480.8C346.7 482.3 373.3 480.7 400 472.5C426.7 464.3 453.3 449.7 480 449.7C506.7 449.7 533.3 464.3 560 474C586.7 483.7 613.3 488.3 640 485.8C666.7 483.3 693.3 473.7 720 465.8C746.7 458 773.3 452 800 456C826.7 460 853.3 474 880 477.2C906.7 480.3 933.3 472.7 946.7 468.8L960 465L960 541L946.7 541C933.3 541 906.7 541 880 541C853.3 541 826.7 541 800 541C773.3 541 746.7 541 720 541C693.3 541 666.7 541 640 541C613.3 541 586.7 541 560 541C533.3 541 506.7 541 480 541C453.3 541 426.7 541 400 541C373.3 541 346.7 541 320 541C293.3 541 266.7 541 240 541C213.3 541 186.7 541 160 541C133.3 541 106.7 541 80 541C53.3 541 26.7 541 13.3 541L0 541Z" fill="#213b22"></path><path d="M0 509L13.3 507.3C26.7 505.7 53.3 502.3 80 498.7C106.7 495 133.3 491 160 490.5C186.7 490 213.3 493 240 495.3C266.7 497.7 293.3 499.3 320 500.3C346.7 501.3 373.3 501.7 400 504.5C426.7 507.3 453.3 512.7 480 507.8C506.7 503 533.3 488 560 480.3C586.7 472.7 613.3 472.3 640 471.3C666.7 470.3 693.3 468.7 720 473.2C746.7 477.7 773.3 488.3 800 491.5C826.7 494.7 853.3 490.3 880 491.7C906.7 493 933.3 500 946.7 503.5L960 507L960 541L946.7 541C933.3 541 906.7 541 880 541C853.3 541 826.7 541 800 541C773.3 541 746.7 541 720 541C693.3 541 666.7 541 640 541C613.3 541 586.7 541 560 541C533.3 541 506.7 541 480 541C453.3 541 426.7 541 400 541C373.3 541 346.7 541 320 541C293.3 541 266.7 541 240 541C213.3 541 186.7 541 160 541C133.3 541 106.7 541 80 541C53.3 541 26.7 541 13.3 541L0 541Z" fill="#122112"></path></svg>