<svg id="visual" viewBox="0 0 960 540" width="960" height="540" xmlns="http://www.w3.org/2000/svg" xmlns:xlink="http://www.w3.org/1999/xlink" version="1.1"><rect x="0" y="0" width="960" height="540" fill="#eef0e5"></rect><path d="M0 361L13.3 355.8C26.7 350.7 53.3 340.3 80 338.7C106.7 337 133.3 344 160 353.7C186.7 363.3 213.3 375.7 240 380.8C266.7 386 293.3 384 320 371.5C346.7 359 373.3 336 400 329.7C426.7 323.3 453.3 333.7 480 340.7C506.7 347.7 533.3 351.3 560 357C586.7 362.7 613.3 370.3 640 363.2C666.7 356 693.3 334 720 337.7C746.7 341.3 773.3 370.7 800 387.3C826.7 404 853.3 408 880 397C906.7 386 933.3 360 946.7 347L960 334L960 541L946.7 541C933.3 541 906.7 541 880 541C853.3 541 826.7 541 800 541C773.3 541 746.7 541 720 541C693.3 541 666.7 541 640 541C613.3 541 586.7 541 560 541C533.3 541 506.7 541 480 541C453.3 541 426.7 541 400 541C373.3 541 346.7 541 320 541C293.3 541 266.7 541 240 541C213.3 541 186.7 541 160 541C133.3 541 106.7 541 80 541C53.3 541 26.7 541 13.3 541L0 541Z" fill="#a9cda8"></path><path d="M0 367L13.3 366.7C26.7 366.3 53.3 365.7 80 373.5C106.7 381.3 133.3 397.7 160 396.7C186.7 395.7 213.3 377.3 240 373.8C266.7 370.3 293.3 381.7 320 388C346.7 394.3 373.3 395.7 400 394C426.7 392.3 453.3 387.7 480 386.2C506.7 384.7 533.3 386.3 560 394.8C586.7 403.3 613.3 418.7 640 420.2C666.7 421.7 693.3 409.3 720 406.3C746.7 403.3 773.3 409.7 800 407.3C826.7 405 853.3 394 880 389.7C906.7 385.3 933.3 387.7 946.7 388.8L960 390L960 541L946.7 541C933.3 541 906.7 541 880 541C853.3 541 826.7 541 800 541C773.3 541 746.7 541 720 541C693.3 541 666.7 541 640 541C613.3 541 586.7 541 560 541C533.3 541 506.7 541 480 541C453.3 541 426.7 541 400 541C373.3 541 346.7 541 320 541C293.3 541 266.7 541 240 541C213.3 541 186.7 541 160 541C133.3 541 106.7 541 80 541C53.3 541 26.7 541 13.3 541L0 541Z" fill="#80a383"></path><path d="M0 438L13.3 440.3C26.7 442.7 53.3 447.3 80 446.8C106.7 446.3 133.3 440.7 160 433.8C186.7 427 213.3 419 240 419C266.7 419 293.3 427 320 426.3C346.7 425.7 373.3 416.3 400 418.8C426.7 421.3 453.3 435.7 480 443.3C506.7 451 533.3 452 560 451.5C586.7 451 613.3 449 640 442.3C666.7 435.7 693.3 424.3 720 420C746.7 415.7 773.3 418.3 800 424C826.7 429.7 853.3 438.3 880 442.7C906.7 447 933.3 447 946.7 447L960 447L960 541L946.7 541C933.3 541 906.7 541 880 541C853.3 541 826.7 541 800 541C773.3 541 746.7 541 720 541C693.3 541 666.7 541 640 541C613.3 541 586.7 541 560 541C533.3 541 506.7 541 480 541C453.3 541 426.7 541 400 541C373.3 541 346.7 541 320 541C293.3 541 266.7 541 240 541C213.3 541 186.7 541 160 541C133.3 541 106.7 541 80 541C53.3 541 26.7 541 13.3 541L0 541Z" fill="#5a7a60"></path><path d="M0 432L13.3 439.8C26.7 447.7 53.3 463.3 80 468.3C106.7 473.3 133.3 467.7 160 469.3C186.7 471 213.3 480 240 476.2C266.7 472.3 293.3 455.7 320 456.2C346.7 456.7 373.3 474.3 400 472.5C426.7 470.7 453.3 449.3 480 449.3C506.7 449.3 533.3 470.7 560 476.2C586.7 481.7 613.3 471.3 640 471C666.7 470.7 693.3 480.3 720 478.2C746.7 476 773.3 462 800 461C826.7 460 853.3 472 880 472.5C906.7 473 933.3 462 946.7 456.5L960 451L960 541L946.7 541C933.3 541 906.7 541 880 541C853.3 541 826.7 541 800 541C773.3 541 746.7 541 720 541C693.3 541 666.7 541 640 541C613.3 541 586.7 541 560 541C533.3 541 506.7 541 480 541C453.3 541 426.7 541 400 541C373.3 541 346.7 541 320 541C293.3 541 266.7 541 240 541C213.3 541 186.7 541 160 541C133.3 541 106.7 541 80 541C53.3 541 26.7 541 13.3 541L0 541Z" fill="#37543f"></path><path d="M0 502L13.3 501C26.7 500 53.3 498 80 492.7C106.7 487.3 133.3 478.7 160 481.3C186.7 484 213.3 498 240 498.8C266.7 499.7 293.3 487.3 320 480.2C346.7 473 373.3 471 400 472.5C426.7 474 453.3 479 480 484.5C506.7 490 533.3 496 560 501.2C586.7 506.3 613.3 510.7 640 508.8C666.7 507 693.3 499 720 493.5C746.7 488 773.3 485 800 488C826.7 491 853.3 500 880 499.2C906.7 498.3 933.3 487.7 946.7 482.3L960 477L960 541L946.7 541C933.3 541 906.7 541 880 541C853.3 541 826.7 541 800 541C773.3 541 746.7 541 720 541C693.3 541 666.7 541 640 541C613.3 541 586.7 541 560 541C533.3 541 506.7 541 480 541C453.3 541 426.7 541 400 541C373.3 541 346.7 541 320 541C293.3 541 266.7 541 240 541C213.3 541 186.7 541 160 541C133.3 541 106.7 541 80 541C53.3 541 26.7 541 13.3 541L0 541Z" fill="#163020"></path></svg>