<svg id="visual" viewBox="0 0 1920 1080" width="1920" height="1080" xmlns="http://www.w3.org/2000/svg" xmlns:xlink="http://www.w3.org/1999/xlink" version="1.1"><rect x="0" y="0" width="1920" height="1080" fill="#eef0e5"></rect><path d="M0 688L32 683.3C64 678.7 128 669.3 192 675C256 680.7 320 701.3 384 719.5C448 737.7 512 753.3 576 742.2C640 731 704 693 768 671.2C832 649.3 896 643.7 960 647.7C1024 651.7 1088 665.3 1152 678C1216 690.7 1280 702.3 1344 697.5C1408 692.7 1472 671.3 1536 660.5C1600 649.7 1664 649.3 1728 655C1792 660.7 1856 672.3 1888 678.2L1920 684L1920 1081L1888 1081C1856 1081 1792 1081 1728 1081C1664 1081 1600 1081 1536 1081C1472 1081 1408 1081 1344 1081C1280 1081 1216 1081 1152 1081C1088 1081 1024 1081 960 1081C896 1081 832 1081 768 1081C704 1081 640 1081 576 1081C512 1081 448 1081 384 1081C320 1081 256 1081 192 1081C128 1081 64 1081 32 1081L0 1081Z" fill="#a9cda8"></path><path d="M0 774L32 778.3C64 782.7 128 791.3 192 794C256 796.7 320 793.3 384 785.8C448 778.3 512 766.7 576 767.7C640 768.7 704 782.3 768 787.3C832 792.3 896 788.7 960 788.8C1024 789 1088 793 1152 798C1216 803 1280 809 1344 802.3C1408 795.7 1472 776.3 1536 756.8C1600 737.3 1664 717.7 1728 730.8C1792 744 1856 790 1888 813L1920 836L1920 1081L1888 1081C1856 1081 1792 1081 1728 1081C1664 1081 1600 1081 1536 1081C1472 1081 1408 1081 1344 1081C1280 1081 1216 1081 1152 1081C1088 1081 1024 1081 960 1081C896 1081 832 1081 768 1081C704 1081 640 1081 576 1081C512 1081 448 1081 384 1081C320 1081 256 1081 192 1081C128 1081 64 1081 32 1081L0 1081Z" fill="#88ab8a"></path><path d="M0 826L32 835C64 844 128 862 192 853.8C256 845.7 320 811.3 384 797.3C448 783.3 512 789.7 576 788.3C640 787 704 778 768 785.3C832 792.7 896 816.3 960 822.7C1024 829 1088 818 1152 807.3C1216 796.7 1280 786.3 1344 790.7C1408 795 1472 814 1536 811.7C1600 809.3 1664 785.7 1728 795.3C1792 805 1856 848 1888 869.5L1920 891L1920 1081L1888 1081C1856 1081 1792 1081 1728 1081C1664 1081 1600 1081 1536 1081C1472 1081 1408 1081 1344 1081C1280 1081 1216 1081 1152 1081C1088 1081 1024 1081 960 1081C896 1081 832 1081 768 1081C704 1081 640 1081 576 1081C512 1081 448 1081 384 1081C320 1081 256 1081 192 1081C128 1081 64 1081 32 1081L0 1081Z" fill="#698a6e"></path><path d="M0 872L32 871.7C64 871.3 128 870.7 192 881.2C256 891.7 320 913.3 384 909C448 904.7 512 874.3 576 872.5C640 870.7 704 897.3 768 911.7C832 926 896 928 960 913.3C1024 898.7 1088 867.3 1152 859.8C1216 852.3 1280 868.7 1344 882.8C1408 897 1472 909 1536 908.8C1600 908.7 1664 896.3 1728 895C1792 893.7 1856 903.3 1888 908.2L1920 913L1920 1081L1888 1081C1856 1081 1792 1081 1728 1081C1664 1081 1600 1081 1536 1081C1472 1081 1408 1081 1344 1081C1280 1081 1216 1081 1152 1081C1088 1081 1024 1081 960 1081C896 1081 832 1081 768 1081C704 1081 640 1081 576 1081C512 1081 448 1081 384 1081C320 1081 256 1081 192 1081C128 1081 64 1081 32 1081L0 1081Z" fill="#4c6a52"></path><path d="M0 933L32 930C64 927 128 921 192 919C256 917 320 919 384 921C448 923 512 925 576 924C640 923 704 919 768 924.8C832 930.7 896 946.3 960 945.7C1024 945 1088 928 1152 920.5C1216 913 1280 915 1344 925.5C1408 936 1472 955 1536 962.8C1600 970.7 1664 967.3 1728 957.8C1792 948.3 1856 932.7 1888 924.8L1920 917L1920 1081L1888 1081C1856 1081 1792 1081 1728 1081C1664 1081 1600 1081 1536 1081C1472 1081 1408 1081 1344 1081C1280 1081 1216 1081 1152 1081C1088 1081 1024 1081 960 1081C896 1081 832 1081 768 1081C704 1081 640 1081 576 1081C512 1081 448 1081 384 1081C320 1081 256 1081 192 1081C128 1081 64 1081 32 1081L0 1081Z" fill="#304c38"></path><path d="M0 964L32 967.3C64 970.7 128 977.3 192 986.8C256 996.3 320 1008.7 384 1013.3C448 1018 512 1015 576 1007.7C640 1000.3 704 988.7 768 991.8C832 995 896 1013 960 1011.7C1024 1010.3 1088 989.7 1152 984.7C1216 979.7 1280 990.3 1344 999.5C1408 1008.7 1472 1016.3 1536 1018C1600 1019.7 1664 1015.3 1728 1011C1792 1006.7 1856 1002.3 1888 1000.2L1920 998L1920 1081L1888 1081C1856 1081 1792 1081 1728 1081C1664 1081 1600 1081 1536 1081C1472 1081 1408 1081 1344 1081C1280 1081 1216 1081 1152 1081C1088 1081 1024 1081 960 1081C896 1081 832 1081 768 1081C704 1081 640 1081 576 1081C512 1081 448 1081 384 1081C320 1081 256 1081 192 1081C128 1081 64 1081 32 1081L0 1081Z" fill="#163020"></path></svg>